<svg version="1.1" id="Layer_1" xmlns="http://www.w3.org/2000/svg" xmlns:xlink="http://www.w3.org/1999/xlink" 
     width="500px" height="500px" viewBox="0 0 500 500" enable-background="new 0 0 1200 1200" xml:space="preserve">
  <path fill="transparent" opacity="1.000000" stroke="none" 
    d="M239.000000,501.000000 C159.333359,501.000000 80.166702,501.000000 1.000042,501.000000 
       C1.000028,334.333405 1.000028,167.666779 1.000014,1.000132 
       C167.666565,1.000088 334.333130,1.000088 500.999756,1.000044 
       C500.999847,167.666519 500.999847,334.333038 500.999939,500.999786 
       C413.833344,501.000000 326.666656,501.000000 239.000000,501.000000 
    M200.106155,337.635559 C195.197769,350.696594 190.289383,363.757629 185.372223,376.841949 
       C194.254395,376.841949 202.900406,376.841949 211.509125,376.841949 
       C243.238556,292.895538 274.918457,209.080124 306.669037,125.077820 
       C297.750763,125.077820 289.267456,125.077820 280.704468,125.077820 
       C279.479065,127.653442 278.070404,130.121735 277.091919,132.750183 
       C270.351562,150.855560 263.734558,169.006851 257.008301,187.117508 
       C253.421951,196.773804 249.674637,206.370163 246.038986,216.008301 
       C238.306183,236.508148 230.587296,257.013275 222.884399,277.524384 
       C215.441132,297.344238 208.025116,317.174347 200.106155,337.635559"/>
  <path fill="#fff" opacity="1.000000" stroke="none" 
    d="M200.351654,337.317749 C208.025116,317.174347 215.441132,297.344238 222.884399,277.524384 
       C230.587296,257.013275 238.306183,236.508148 246.038986,216.008301 
       C249.674637,206.370163 253.421951,196.773804 257.008301,187.117508 
       C263.734558,169.006851 270.351562,150.855560 277.091919,132.750183 
       C278.070404,130.121735 279.479065,127.653442 280.704468,125.077820 
       C289.267456,125.077820 297.750763,125.077820 306.669037,125.077820 
       C274.918457,209.080124 243.238556,292.895538 211.509125,376.841949 
       C202.900406,376.841949 194.254395,376.841949 185.372223,376.841949 
       C190.289383,363.757629 195.197769,350.696594 200.351654,337.317749"/>
  <path fill="#fff" opacity="1.000000" stroke="none" 
    d="M381.026733,225.949097 C372.514221,221.790970 364.423431,217.602936 356.208679,213.673950 
       C353.768219,212.506744 352.859711,211.136322 352.948639,208.405609 
       C353.165131,201.756622 353.019165,195.095840 353.019165,187.535538 
       C391.906525,206.986786 430.274841,226.178391 468.804993,245.450958 
       C468.804993,254.268738 468.804993,263.234131 468.804993,272.250366 
       C430.414368,291.374664 392.042084,310.489777 353.006958,329.935120 
       C353.006958,321.921112 352.907837,314.532135 353.121124,307.152222 
       C353.150757,306.125458 354.518585,304.731873 355.605469,304.200500 
       C383.277954,290.671722 410.980804,277.204590 438.722626,263.818542 
       C442.556244,261.968750 446.621979,260.600037 450.701630,258.959839 
       C426.495758,250.228317 404.442047,237.089584 381.026733,225.949097"/>
  <path fill="#fff" opacity="1.000000" stroke="none" 
    d="M129.359924,192.359314 C132.583572,190.755539 135.500412,189.378479 138.769653,187.835052 
       C138.769653,196.351532 138.769653,204.431259 138.769653,212.506439 
       C106.688446,228.033554 74.565506,243.580887 43.415051,258.657532 
       C74.549088,273.930115 106.649933,289.676941 138.893814,305.493958 
       C138.893814,313.340088 138.893814,321.322693 138.893814,329.906311 
       C128.955933,324.906891 119.287849,320.007294 109.588440,315.170563 
       C81.996460,301.411499 54.408302,287.644470 26.765574,273.988007 
       C24.078436,272.660461 22.868992,271.195038 23.006861,268.036957 
       C23.289856,261.554657 22.924875,255.044113 23.205050,248.561554 
       C23.270742,247.041580 24.477543,244.861023 25.775215,244.207779 
       C60.151852,226.902542 94.609390,209.758011 129.359924,192.359314"/>
</svg>
